<?xml version="1.0" encoding="utf-8"?>
<!-- Generator: Adobe Illustrator 22.0.1, SVG Export Plug-In . SVG Version: 6.00 Build 0)  -->
<svg version="1.1" id="Layer_1" xmlns="http://www.w3.org/2000/svg" xmlns:xlink="http://www.w3.org/1999/xlink" x="0px" y="0px"
	 viewBox="0 0 100 100" style="enable-background:new 0 0 100 100;" xml:space="preserve">
<style type="text/css">
	.st0{fill:#FFFFFF;stroke:#000000;stroke-linejoin:round;stroke-miterlimit:10;}
	.st1{fill:#29ABE2;stroke:#000000;stroke-linecap:round;stroke-linejoin:round;stroke-miterlimit:10;}
	.st2{fill:#FFFFFF;stroke:#000000;stroke-linecap:round;stroke-linejoin:round;stroke-miterlimit:10;}
	.st3{fill:#808080;stroke:#000000;stroke-linecap:round;stroke-linejoin:round;stroke-miterlimit:10;}
	.st4{fill:#0071BC;stroke:#000000;stroke-linecap:round;stroke-linejoin:round;stroke-miterlimit:10;}
	.st5{font-family:'MyriadPro-Regular';}
	.st6{font-size:32.5853px;}
	.st7{font-size:12px;}
</style>
<rect x="19.1" y="22" class="st0" width="59.8" height="59.8"/>
<rect x="15.5" y="11" class="st1" width="67" height="11"/>
<path class="st2" d="M66.4,68.7l0.1,13.1l0,0c5.5-2.2,10.1-7.5,12.5-13.1H66.4z"/>
<polyline class="st3" points="78.9,81.8 84.6,74.3 84.6,20.2 "/>
<polygon class="st4" points="86.7,8.3 86.7,18.4 82.6,22 82.6,11 "/>
<text transform="matrix(1 0 0 1 41.85 58.9492)" class="st5 st6">1</text>
<text transform="matrix(1 0 0 1 28.4091 76.2261)" class="st5 st7">Mon.</text>
<text transform="matrix(1 0 0 1 23.6792 33.9183)" class="st5 st7">1</text>
<polygon class="st4" points="19.1,8.3 15.5,11 82.6,11 86.7,8.3 "/>
</svg>
