<svg xmlns="http://www.w3.org/2000/svg" viewBox="0 0 438.34 183.72"><defs><style>.cls-1,.cls-3,.cls-4{fill:none;}.cls-1,.cls-2,.cls-3,.cls-4,.cls-5{stroke:#fff;stroke-miterlimit:10;}.cls-1,.cls-2,.cls-3{stroke-linecap:round;}.cls-1,.cls-2{stroke-width:5px;}.cls-2,.cls-5,.cls-6,.cls-7,.cls-8{fill:#fff;}.cls-3{stroke-width:3px;}.cls-5{font-size:106.76px;font-family:FZSTK--GBK1-0, FZShuTi;}.cls-6{font-size:26.36px;font-family:HanWangMingBlack, HanWangMingBlack;}.cls-8{font-size:10.06px;font-family:CourierNewPSMT, Courier New;}</style></defs><title>logo_text</title><g id="Layer_1" data-name="Layer 1"><path class="cls-1" d="M211.37,164.48a82.52,82.52,0,1,1-159.88-41" transform="translate(-40.43 -45.32)"/><path class="cls-1" d="M100.09,67.66a82.52,82.52,0,1,1,62.68,152.68" transform="translate(-40.43 -45.32)"/><circle class="cls-2" cx="120.69" cy="67.13" r="7.94"/><path class="cls-1" d="M152.5,141.87c0,7.06-6.89,12.78-15.39,12.78s-15.38-5.72-15.38-12.78" transform="translate(-40.43 -45.32)"/><path class="cls-1" d="M137.11,154.87c0,16.8-6.88,30.42-15.38,30.42s-15.38-13.62-15.38-30.42" transform="translate(-40.43 -45.32)"/><path class="cls-1" d="M121.73,141.87c0,7.06-6.88,12.78-15.38,12.78S91,148.93,91,141.87" transform="translate(-40.43 -45.32)"/><path class="cls-1" d="M171.21,71.7S211.5,39,212.61,50.12c3,30.23-4.84,62.54-4.84,62.54" transform="translate(-40.43 -45.32)"/></g><g id="station"><circle class="cls-3" cx="119.5" cy="122.21" r="2.99"/><line class="cls-3" x1="110.11" y1="129.85" x2="128.63" y2="129.85"/><line class="cls-3" x1="110.11" y1="148.14" x2="128.63" y2="148.14"/><line class="cls-3" x1="116.5" y1="132.99" x2="116.5" y2="145"/><line class="cls-3" x1="122.49" y1="132.99" x2="122.49" y2="145"/><line class="cls-3" x1="140.97" y1="118.26" x2="140.97" y2="130.27"/><line class="cls-3" x1="142.74" y1="124.83" x2="148.26" y2="124.83"/><circle class="cls-3" cx="141.95" cy="144.13" r="7.78"/></g><g id="mew"><circle class="cls-4" cx="8.09" cy="51.47" r="6.59"/><circle class="cls-4" cx="37.55" cy="64.73" r="16.36"/><line class="cls-4" x1="14.68" y1="34.02" x2="62.01" y2="34.02"/><line class="cls-4" x1="30.4" y1="23.15" x2="30.4" y2="44.88"/><line class="cls-4" x1="45.3" y1="23.15" x2="45.3" y2="44.88"/><line class="cls-4" x1="37.03" y1="64.9" x2="49.91" y2="64.73"/><line class="cls-4" x1="43.56" y1="71.17" x2="43.38" y2="58.29"/><circle class="cls-3" cx="8.09" cy="51.47" r="6.59"/><circle class="cls-3" cx="37.55" cy="64.73" r="16.36"/><line class="cls-3" x1="14.68" y1="34.02" x2="62.01" y2="34.02"/><line class="cls-3" x1="30.4" y1="23.15" x2="30.4" y2="44.88"/><line class="cls-3" x1="45.3" y1="23.15" x2="45.3" y2="44.88"/><line class="cls-3" x1="37.03" y1="64.9" x2="49.91" y2="64.73"/><line class="cls-3" x1="43.56" y1="71.17" x2="43.38" y2="58.29"/></g><g id="Layer_7" data-name="Layer 7"><text class="cls-5" transform="translate(170.94 166.59)"><tspan xml:space="preserve">貓  站</tspan></text><text class="cls-6" transform="translate(181.43 78.19)">貓咪大戰中文資料站</text><path class="cls-7" d="M364.21,178.06a9.07,9.07,0,0,1-3.34,6.79,10.25,10.25,0,0,1-6.79,2.23,10.59,10.59,0,0,1-6.47-2.55,9.08,9.08,0,0,1-3.2-6.47,9.92,9.92,0,0,1,.6-3.76,9.62,9.62,0,0,1,2.06-3.24,10,10,0,0,1,14.22-.21A9.81,9.81,0,0,1,364.21,178.06Zm-3.32,0a7.22,7.22,0,0,0-2-4.78,7.07,7.07,0,0,0-4.77-2.1,7,7,0,0,0-5,1.9,7.49,7.49,0,0,0-2.31,5,7.92,7.92,0,0,0,1.77,5.51,6.85,6.85,0,0,0,10.71-.32A8,8,0,0,0,360.89,178.06Z" transform="translate(-40.43 -45.32)"/><text class="cls-8" transform="translate(189.82 52.97) scale(0.9 1)">Battle Cat Chinese database query station</text></g></svg>