<svg id="Layer_1" data-name="Layer 1" xmlns="http://www.w3.org/2000/svg" viewBox="0 0 100 100"><defs><style>.cls-1,.cls-3,.cls-4{fill:none;}.cls-1,.cls-2,.cls-3,.cls-4{stroke:#000;stroke-miterlimit:10;}.cls-1,.cls-2,.cls-3{stroke-linecap:round;}.cls-1,.cls-2{stroke-width:3px;}</style></defs><title>Artboard 1</title><path class="cls-1" d="M87.7,62.34A37.3,37.3,0,0,1,15.44,43.82"/><path class="cls-1" d="M37.41,18.58a37.3,37.3,0,1,1,28.33,69"/><circle class="cls-2" cx="64.99" cy="38.82" r="3.59"/><path class="cls-1" d="M61.09,52.12c0,3.19-3.11,5.78-7,5.78s-7-2.59-7-5.78"/><path class="cls-1" d="M54.14,58c0,7.6-3.11,13.75-7,13.75S40.24,65.59,40.24,58"/><path class="cls-1" d="M47.19,52.12c0,3.19-3.12,5.78-6.95,5.78s-7-2.59-7-5.78"/><path class="cls-1" d="M69.55,20.4S87.76,5.64,88.26,10.65c1.36,13.66-2.18,28.27-2.18,28.27"/><circle class="cls-3" cx="64.45" cy="63.72" r="1.35"/><line class="cls-3" x1="60.21" y1="67.17" x2="68.58" y2="67.17"/><line class="cls-3" x1="60.21" y1="75.44" x2="68.58" y2="75.44"/><line class="cls-3" x1="63.1" y1="68.59" x2="63.1" y2="74.02"/><line class="cls-3" x1="65.8" y1="68.59" x2="65.8" y2="74.02"/><line class="cls-3" x1="74.16" y1="61.93" x2="74.16" y2="67.36"/><line class="cls-3" x1="74.96" y1="64.9" x2="77.45" y2="64.9"/><circle class="cls-3" cx="74.6" cy="73.63" r="3.52"/><circle class="cls-4" cx="14.1" cy="31.74" r="2.98"/><circle class="cls-4" cx="27.41" cy="37.74" r="7.39"/><line class="cls-4" x1="17.08" y1="23.86" x2="38.47" y2="23.86"/><line class="cls-4" x1="24.18" y1="18.95" x2="24.18" y2="28.77"/><line class="cls-4" x1="30.91" y1="18.95" x2="30.91" y2="28.77"/><line class="cls-4" x1="27.18" y1="37.82" x2="33" y2="37.74"/><line class="cls-4" x1="30.13" y1="40.65" x2="30.05" y2="34.83"/></svg>